<?xml version="1.0" encoding="utf-8"?>
<!-- Generator: Adobe Illustrator 17.0.0, SVG Export Plug-In . SVG Version: 6.00 Build 0)  -->
<!DOCTYPE svg PUBLIC "-//W3C//DTD SVG 1.1//EN" "http://www.w3.org/Graphics/SVG/1.1/DTD/svg11.dtd">
<svg version="1.1" id="レイヤー_1" xmlns="http://www.w3.org/2000/svg" xmlns:xlink="http://www.w3.org/1999/xlink" x="0px"
	 y="0px" width="1200px" height="2000px" viewBox="0 0 1200 2000" enable-background="new 0 0 1200 2000" xml:space="preserve">
<text transform="matrix(0.8808 0 0 1 0.2628 150.6172)" fill="#EFEFEF" font-family="'HGPSoeiKakugothicUB'" font-size="183.5626">KNCT</text>
<text transform="matrix(0 1.1353 -1 0 12.6739 167.7773)" fill="#EFEFEF" font-family="'HGPSoeiKakugothicUB'" font-size="107.7924">Electronics</text>
<text transform="matrix(0.9199 0 0 1 100.9522 265.8662)" fill="#EFEFEF" font-family="'HGPSoeiKakugothicUB'" font-size="122.3751">Newton</text>
<text transform="matrix(0.8808 0 0 1 98.7091 426.5166)" fill="#EFEFEF" font-family="'HGPSoeiKakugothicUB'" font-size="183.5626">Minecraft</text>
<text transform="matrix(0 1.1353 -1 0 404.9972 3.3818)" fill="#EFEFEF" font-family="'HGPSoeiKakugothicUB'" font-size="80.8443">Civil</text>
<text transform="matrix(1.0107 0 0 1 98.7042 510.3349)" fill="#EFEFEF" font-family="'HGPSoeiKakugothicUB'" font-size="91.7813">greatest commo</text>
<text transform="matrix(0.8821 0 0 1 -1.0507 858.6348)" fill="#EFEFEF" font-family="'HGPSoeiKakugothicUB'" font-size="122.3751">differential equation</text>
<text transform="matrix(0 -0.9203 1 0 1067.0206 858.6348)" fill="#EFEFEF" font-family="'HGPSoeiKakugothicUB'" font-size="152.2075">kinetic energy</text>
<text transform="matrix(0.9627 0 0 1 100.9522 675.2803)" fill="#EFEFEF" font-family="'HGPSoeiKakugothicUB'" font-size="183.5626">Amplitude</text>
<text transform="matrix(0.8396 0 0 1 476.255 231.9677)" fill="#EFEFEF" font-family="'HGPSoeiKakugothicUB'" font-size="278.2292">Field</text>
<text transform="matrix(0.9272 0 0 1 756.1895 360.1631)" fill="#EFEFEF" font-family="'HGPSoeiKakugothicUB'" font-size="91.7813">force</text>
<text transform="matrix(0.9272 0 0 1 756.1895 426.5166)" fill="#EFEFEF" font-family="'HGPSoeiKakugothicUB'" font-size="58.638">load</text>
<text transform="matrix(0 -1.277 1 0 929.1749 764.6768)" fill="#EFEFEF" font-family="'HGPSoeiKakugothicUB'" font-size="83.09">solenoid</text>
<text transform="matrix(0.8152 0 0 1 756.1895 532.833)" fill="#EFEFEF" font-family="'HGPSoeiKakugothicUB'" font-size="122.38">ω</text>
<text transform="matrix(1.3264 0 0 1 98.7042 754.9268)" fill="#EFEFEF" font-family="'HGPSoeiKakugothicUB'" font-size="80.0127">Secondary wave</text>
<text transform="matrix(0.9576 0 0 1 32.7891 998.9521)" fill="#EFEFEF" font-family="'HGPSoeiKakugothicUB'" font-size="156.7773">Burst</text>
<text transform="matrix(0.9272 0 0 1 -1.0527 1006.5996)"><tspan x="0" y="0" fill="#EFEFEF" font-family="'HGPSoeiKakugothicUB'" font-size="35.6927">3.</tspan><tspan x="0" y="40.792" fill="#EFEFEF" font-family="'HGPSoeiKakugothicUB'" font-size="35.6927">1415926535 8979323846 2643383279 5028841971 6939937510</tspan><tspan x="0" y="81.583" fill="#EFEFEF" font-family="'HGPSoeiKakugothicUB'" font-size="35.6927">5820974944 5923078164 0628620899 8628034825 3421170679</tspan><tspan x="0" y="122.375" fill="#EFEFEF" font-family="'HGPSoeiKakugothicUB'" font-size="35.6927">8214808651 3282306647 0938446095 5058223172 5359408128</tspan><tspan x="0" y="163.167" fill="#EFEFEF" font-family="'HGPSoeiKakugothicUB'" font-size="35.6927">4811174502 8410270193 8521105559 6446229489 5493038196</tspan><tspan x="0" y="203.958" fill="#EFEFEF" font-family="'HGPSoeiKakugothicUB'" font-size="35.6927">4428810975 6659334461 2847564823 3786783165 2712019091</tspan><tspan x="0" y="244.75" fill="#EFEFEF" font-family="'HGPSoeiKakugothicUB'" font-size="35.6927">4564856692 3460348610 4543266482 1339360726 0249141273 </tspan></text>
<text transform="matrix(0 -1.2406 1 0 1181.0734 1256.9932)" fill="#EFEFEF" font-family="'HGPSoeiKakugothicUB'" font-size="107.7924">Newtonian mechanics</text>
<text transform="matrix(0 -1.195 1 0 429.7237 1006.5957)" fill="#EFEFEF" font-family="'HGPSoeiKakugothicUB'" font-size="60.2119">soul</text>
<text transform="matrix(0.9272 0 0 1 442.1524 998.9521)" fill="#EFEFEF" font-family="'HGPSoeiKakugothicUB'" font-size="91.7813">209-2100</text>
<text transform="matrix(1.0389 0 0 1 442.1524 919.124)" fill="#EFEFEF" font-family="'HGPSoeiKakugothicUB'" font-size="51.0525">Mechanical</text>
<text transform="matrix(0 -1.2871 1 0 27.9454 970.042)" fill="#EFEFEF" font-family="'HGPSoeiKakugothicUB'" font-size="34.1892">drain</text>
<text transform="matrix(0.6881 0 0 1 872.9346 996.6416)" fill="#EFEFEF" font-family="'HGPSoeiKakugothicUB'" font-size="78.0791">Fantastic</text>
<text transform="matrix(0 -1.1297 1 0 712.9112 919.124)" fill="#EFEFEF" font-family="'HGPSoeiKakugothicUB'" font-size="16.7671">bend</text>
<text transform="matrix(0.9272 0 0 1 718.8047 919.124)" fill="#EFEFEF" font-family="'HGPSoeiKakugothicUB'" font-size="48.4401">electromotive force</text>
<text transform="matrix(0 1.195 -1 0 10.1778 1269.7441)" fill="#EFEFEF" font-family="'HGPSoeiKakugothicUB'" font-size="80.8443">COCET 2600</text>
<text transform="matrix(0.9272 0 0 1 87.4718 1370.9082)" fill="#EFEFEF" font-family="'HGPSoeiKakugothicUB'" font-size="122.3751">pv = nRT</text>
<text transform="matrix(0 -1.195 1 0 224.0001 1847.6865)" fill="#EFEFEF" font-family="'HGPSoeiKakugothicUB'" font-size="161.6887">AREA</text>
<text transform="matrix(1.0938 0 0 1 249.6622 1504.9385)" fill="#EFEFEF" font-family="'HGPSoeiKakugothicUB'" font-size="152.9688">piston</text>
<text transform="matrix(0.9958 0 0 1 0.2589 1989.6465)" fill="#EFEFEF" font-family="'HGPSoeiKakugothicUB'" font-size="152.9688">Red Bull</text>
<text transform="matrix(0.9272 0 0 1 249.6622 1636.417)" fill="#EFEFEF" font-family="'HGPSoeiKakugothicUB'" font-size="122.3751">MONSTER ENERGY</text>
<text transform="matrix(0.5886 0 0 1 692.7276 1468.2305)" fill="#EFEFEF" font-family="'HGPSoeiKakugothicUB'" font-size="235.6119">Cylinder</text>
<text transform="matrix(0 -1.1188 1 0 295.9034 1847.6885)" fill="#EFEFEF" font-family="'HGPSoeiKakugothicUB'" font-size="71.0339">cubic</text>
<text transform="matrix(0.9272 0 0 1 322.1651 1742.2256)" fill="#EFEFEF" font-family="'HGPSoeiKakugothicUB'" font-size="91.7813">Flash!</text>
<text transform="matrix(0.905 0 0 1 322.1622 1834.9443)" fill="#EFEFEF" font-family="'HGPSoeiKakugothicUB'" font-size="91.7813">pound</text>
<text transform="matrix(0 1.195 -1 0 555.3233 1666.4033)" fill="#EFEFEF" font-family="'HGPSoeiKakugothicUB'" font-size="91.7569">Whistle</text>
<text transform="matrix(1.0251 0 0 1 641.7081 1765.8926)" fill="#EFEFEF" font-family="'HGPSoeiKakugothicUB'" font-size="119.3253">DISTANCE</text>
<text transform="matrix(0.9272 0 0 1 641.7081 1834.9424)" fill="#EFEFEF" font-family="'HGPSoeiKakugothicUB'" font-size="53.5391">pollution</text>
<text transform="matrix(0.9272 0 0 1 612.169 1984.8086)" fill="#EFEFEF" font-family="'HGPSoeiKakugothicUB'" font-size="157.7755">θ</text>
<text transform="matrix(0.9541 0 0 1 756.1846 1989.6465)" fill="#EFEFEF" font-family="'HGPSoeiKakugothicUB'" font-size="122.3751">English</text>
<text transform="matrix(0.9272 0 0 1 760.8497 1882.2344)" fill="#EFEFEF" font-family="'HGPSoeiKakugothicUB'" font-size="45.8906">magnetic induction</text>
<text transform="matrix(0 -1.2678 1 0 847.7178 1842.7988)" fill="#EFEFEF" font-family="'HGPSoeiKakugothicUB'" font-size="21.1676">elect</text>
<text transform="matrix(0.6317 0 0 1 854.7266 1831.2734)" fill="#EFEFEF" font-family="'HGPSoeiKakugothicUB'" font-size="52.3095">σ = P/A = 4P/πd^2</text>
<text transform="matrix(0.6957 -0.7899 0.661 0.7504 592.1635 1423.1345)" fill="#EFEFEF" font-family="'HGPSoeiKakugothicUB'" font-size="138.5525">π</text>
<text transform="matrix(0 -0.9602 1 0 1176.8419 1997.8672)" fill="#EFEFEF" font-family="'HGPSoeiKakugothicUB'" font-size="80.8443">weld</text>
</svg>
